<?xml version="1.0" encoding="UTF-8"?>
<svg viewBox="312 30 546.27136 534.1629" xmlns="http://www.w3.org/2000/svg">
 <defs>
  <filter id="a">
   <feGaussianBlur in="SourceGraphic" result="result0" stdDeviation="6"/>
   <feDiffuseLighting result="result5" surfaceScale="4">
    <feDistantLight azimuth="235" elevation="45"/>
   </feDiffuseLighting>
   <feComposite in="result5" in2="SourceGraphic" k1="1.4" operator="arithmetic" result="fbSourceGraphic"/>
   <feGaussianBlur in="fbSourceGraphic" result="result0" stdDeviation="6"/>
   <feSpecularLighting in="result0" result="result1" specularExponent="25" surfaceScale="4">
    <feDistantLight azimuth="235" elevation="45"/>
   </feSpecularLighting>
   <feComposite in="fbSourceGraphic" in2="result1" k2="1" k3="1" operator="arithmetic" result="result4"/>
   <feComposite in="result4" in2="SourceGraphic" operator="in" result="result2"/>
  </filter>
  <filter id="b" x="-.05312" y="-.26122" width="1.1062" height="1.5224">
   <feGaussianBlur stdDeviation="8.0267"/>
  </filter>
 </defs>
 <g transform="translate(57.574 -190.22)">
  <!-- <path transform="matrix(1.2395 0 0 1.5867 -89.903 -114.23)" d="m447.54 472.38c0 20.365-81.188 36.874-181.34 36.874s-181.34-16.509-181.34-36.874 81.188-36.874 181.34-36.874 181.34 16.509 181.34 36.874z" filter="url(#b)" opacity=".15"/> -->
  <path d="m-3.6031 438.25h388.72l-59.572 203.48s-36.597 18-134.79 18-134.79-18-134.79-18z" fill="#445016"/>
  <path d="m20.173 503.81s-26.146-67.804-23.962-102.98c7.8984-127.21 101.48-168.98 196.04-168.98s194.59 72.953 196.04 168.98c0.53382 35.396-25.962 102.98-25.962 102.98" fill="none" stroke="#668000" stroke-linecap="round" stroke-linejoin="round" stroke-width="24"/>
  <path d="m20.173 503.81s-26.146-67.804-23.962-102.98c7.8984-127.21 101.48-168.98 196.04-168.98s194.59 72.953 196.04 168.98c0.53382 35.396-25.962 102.98-25.962 102.98" fill="none" filter="url(#a)" opacity=".5" stroke="#000" stroke-linecap="round" stroke-linejoin="round" stroke-width="24"/>
  <path d="m193.53 445.27-0.56011 191.48" fill="none" stroke="#668000" stroke-linecap="round" stroke-linejoin="round" stroke-width="16"/>
  <path d="m-5.9105 437.67 57.199 195.79" fill="none" stroke="#668000" stroke-linecap="round" stroke-linejoin="round" stroke-width="16"/>
  <path d="m95.77 437.04 27.199 200.88" fill="none" stroke="#668000" stroke-linecap="round" stroke-linejoin="round" stroke-width="16"/>
  <path d="m390.73 434.38-56.079 198.53" fill="none" stroke="#668000" stroke-linecap="round" stroke-linejoin="round" stroke-width="16"/>
  <path d="m290.41 437.94-26.878 200.91" fill="none" stroke="#668000" stroke-linecap="round" stroke-linejoin="round" stroke-width="16"/>
  <g transform="matrix(.95212 0 0 -.68063 -101.92 614.04)" fill="none" stroke="#8a0" stroke-linecap="round" stroke-linejoin="round" stroke-width="12.422">
   <path d="m203.71 250.68s37.038 10 56 10 56-10 56-10"/>
   <path d="m303.71 250.68s37.038 10 56 10 56-10 56-10"/>
   <path d="m403.71 250.68s37.107 12.506 56 15.877c20.63 3.6813 62.302 4.6924 62.302 4.6924"/>
   <path d="m101.61 265.37s38.812 0.75266 58.101-1.7539c18.838-2.4481 56-12.938 56-12.938"/>
  </g>
  <g transform="translate(-116.75 217.37)" fill="none" stroke="#aad400" stroke-linecap="round" stroke-linejoin="round" stroke-width="10">
   <path d="m235.28 434.68s25.8 10 39.326 10 39.326-10 39.326-10"/>
   <path d="m305.5 434.68s25.8 10 39.326 10 39.326-10 39.326-10"/>
   <path d="m375.73 428.68s25.964 8.6384 39.326 8c13.69-0.65403 39.326-12 39.326-12"/>
   <path d="m165.05 424.68s25.636 11.346 39.326 12c13.362 0.63837 39.326-8 39.326-8"/>
  </g>
  <g transform="translate(-116.75 215.37)" fill="none" stroke="#8a0" stroke-linecap="round" stroke-linejoin="round" stroke-width="10">
   <path d="m268.97 422.46s27.001 7.4795 40.824 7.4795 40.824-7.4795 40.824-7.4795"/>
   <path d="m343.66 420.46s27.001 7.4795 40.824 7.4795 40.824-7.4795 40.824-7.4795"/>
   <path d="m206.24 420.46s27.001 7.4795 40.824 7.4795 40.824-7.4795 40.824-7.4795"/>
   <path d="m158.76 418.46s17.809 7.4795 27.217 7.4795 27.217-7.4795 27.217-7.4795"/>
   <path d="m459.66 418.46s-17.809 7.4795-27.217 7.4795-27.217-7.4795-27.217-7.4795"/>
  </g>
  <g transform="matrix(.74579 0 0 1 -38.013 371.37)" fill="none" stroke="#aad400" stroke-linecap="round" stroke-linejoin="round" stroke-width="11.58">
   <path d="m203.71 250.68s37.038 10 56 10 56-10 56-10"/>
   <path d="m303.71 250.68s37.038 10 56 10 56-10 56-10"/>
   <path d="m403.71 250.68s37.038 10 56 10 56-10 56-10"/>
   <path d="m103.71 250.68s37.038 10 56 10 56-10 56-10"/>
  </g>
  <g transform="matrix(.76659 0 0 1 -44.571 371.37)" fill="none" stroke="#8a0" stroke-linecap="round" stroke-linejoin="round" stroke-width="11.421">
   <path d="m255.34 238.68s36.151 10 54.659 10 54.659-10 54.659-10"/>
   <path d="m355.34 238.68s36.151 10 54.659 10 54.659-10 54.659-10"/>
   <path d="m171.34 238.68s36.151 10 54.659 10 54.659-10 54.659-10"/>
   <path d="m107.77 238.68s23.845 10 36.441 10 36.441-10 36.441-10"/>
   <path d="m510.65 238.68s-23.845 10-36.441 10-36.441-10-36.441-10"/>
  </g>
  <g transform="matrix(.7669 0 0 1 -44.551 349.37)" fill="none" stroke="#aad400" stroke-linecap="round" stroke-linejoin="round" stroke-width="11.419">
   <path d="m203.71 250.68s37.038 10 56 10 56-10 56-10"/>
   <path d="m303.71 250.68s37.038 10 56 10 56-10 56-10"/>
   <path d="m403.71 250.68s37.038 10 56 10 56-10 56-10"/>
   <path d="m103.71 250.68s37.038 10 56 10 56-10 56-10"/>
  </g>
  <g transform="matrix(.81238 0 0 1 -58.73 347.37)" fill="none" stroke="#8a0" stroke-linecap="round" stroke-linejoin="round" stroke-width="11.095">
   <path d="m255.34 238.68s36.151 10 54.659 10 54.659-10 54.659-10"/>
   <path d="m355.34 238.68s36.151 10 54.659 10 54.659-10 54.659-10"/>
   <path d="m171.34 238.68s36.151 10 54.659 10 54.659-10 54.659-10"/>
   <path d="m107.77 238.68s23.845 10 36.441 10 36.441-10 36.441-10"/>
   <path d="m510.65 238.68s-23.845 10-36.441 10-36.441-10-36.441-10"/>
  </g>
  <g transform="matrix(.80508 0 0 1 -56.375 323.37)" fill="none" stroke="#aad400" stroke-linecap="round" stroke-linejoin="round" stroke-width="11.145">
   <path d="m203.71 250.68s37.038 10 56 10 56-10 56-10"/>
   <path d="m303.71 250.68s37.038 10 56 10 56-10 56-10"/>
   <path d="m403.71 250.68s37.038 10 56 10 56-10 56-10"/>
   <path d="m103.71 250.68s37.038 10 56 10 56-10 56-10"/>
  </g>
  <g transform="matrix(.84293 0 0 1 -68.176 321.37)" fill="none" stroke="#8a0" stroke-linecap="round" stroke-linejoin="round" stroke-width="10.892">
   <path d="m255.34 238.68s36.151 10 54.659 10 54.659-10 54.659-10"/>
   <path d="m355.34 238.68s36.151 10 54.659 10 54.659-10 54.659-10"/>
   <path d="m171.34 238.68s36.151 10 54.659 10 54.659-10 54.659-10"/>
   <path d="m107.77 238.68s23.845 10 36.441 10 36.441-10 36.441-10"/>
   <path d="m510.65 238.68s-23.845 10-36.441 10-36.441-10-36.441-10"/>
  </g>
  <g transform="matrix(.84084 0 0 1 -67.451 297.37)" fill="none" stroke="#aad400" stroke-linecap="round" stroke-linejoin="round" stroke-width="10.905">
   <path d="m203.71 250.68s37.038 10 56 10 56-10 56-10"/>
   <path d="m303.71 250.68s37.038 10 56 10 56-10 56-10"/>
   <path d="m403.71 250.68s37.038 10 56 10 56-10 56-10"/>
   <path d="m103.71 250.68s37.038 10 56 10 56-10 56-10"/>
  </g>
  <g transform="matrix(.87352 0 0 1 -77.635 295.37)" fill="none" stroke="#8a0" stroke-linecap="round" stroke-linejoin="round" stroke-width="10.7">
   <path d="m255.34 238.68s36.151 10 54.659 10 54.659-10 54.659-10"/>
   <path d="m355.34 238.68s36.151 10 54.659 10 54.659-10 54.659-10"/>
   <path d="m171.34 238.68s36.151 10 54.659 10 54.659-10 54.659-10"/>
   <path d="m107.77 238.68s23.845 10 36.441 10 36.441-10 36.441-10"/>
   <path d="m510.65 238.68s-23.845 10-36.441 10-36.441-10-36.441-10"/>
  </g>
  <g transform="matrix(.88056 0 0 1 -79.752 271.37)" fill="none" stroke="#aad400" stroke-linecap="round" stroke-linejoin="round" stroke-width="10.657">
   <path d="m203.71 250.68s37.038 10 56 10 56-10 56-10"/>
   <path d="m303.71 250.68s37.038 10 56 10 56-10 56-10"/>
   <path d="m403.71 250.68s37.038 10 56 10 56-10 56-10"/>
   <path d="m103.71 250.68s37.038 10 56 10 56-10 56-10"/>
  </g>
  <g transform="matrix(.90797 0 0 1 -88.287 267.37)" fill="none" stroke="#8a0" stroke-linecap="round" stroke-linejoin="round" stroke-width="10.495">
   <path d="m255.34 238.68s36.151 10 54.659 10 54.659-10 54.659-10"/>
   <path d="m355.34 238.68s36.151 10 54.659 10 54.659-10 54.659-10"/>
   <path d="m171.34 238.68s36.151 10 54.659 10 54.659-10 54.659-10"/>
   <path d="m107.77 238.68s23.845 10 36.441 10 36.441-10 36.441-10"/>
   <path d="m510.65 238.68s-23.845 10-36.441 10-36.441-10-36.441-10"/>
  </g>
  <g transform="matrix(.9124 0 0 1 -89.614 243.37)" fill="none" stroke="#aad400" stroke-linecap="round" stroke-linejoin="round" stroke-width="10.469">
   <path d="m203.71 250.68s37.038 10 56 10 56-10 56-10"/>
   <path d="m303.71 250.68s37.038 10 56 10 56-10 56-10"/>
   <path d="m403.71 250.68s37.038 10 56 10 56-10 56-10"/>
   <path d="m103.71 250.68s37.038 10 56 10 56-10 56-10"/>
  </g>
  <g transform="matrix(.95779 0 0 1 -103.69 239.37)" fill="none" stroke="#8a0" stroke-linecap="round" stroke-linejoin="round" stroke-width="10.218">
   <path d="m255.34 238.68s36.151 10 54.659 10 54.659-10 54.659-10"/>
   <path d="m355.34 238.68s36.151 10 54.659 10 54.659-10 54.659-10"/>
   <path d="m171.34 238.68s36.151 10 54.659 10 54.659-10 54.659-10"/>
   <path d="m105.68 236.68s25.026 11.771 38.529 12c12.634 0.21395 36.441-10 36.441-10"/>
   <path d="m512.74 236.68s-25.026 11.771-38.529 12c-12.634 0.21395-36.441-10-36.441-10"/>
  </g>
  <g transform="matrix(.95222 0 0 1 -101.95 215.37)" fill="none" stroke="#aad400" stroke-linecap="round" stroke-linejoin="round" stroke-width="10.248">
   <path d="m203.71 250.68s37.038 10 56 10 56-10 56-10"/>
   <path d="m303.71 250.68s37.038 10 56 10 56-10 56-10"/>
   <path d="m403.71 250.68s40.059 7.1239 60.201 6c19.101-1.0658 56-12 56-12"/>
   <path d="m99.514 244.68s36.734 12.916 56 14c20.226 1.1385 60.201-8 60.201-8"/>
  </g>
  <g transform="translate(-116.75 211.37)" fill="none" stroke="#8a0" stroke-linecap="round" stroke-linejoin="round" stroke-width="10">
   <path d="m255.34 238.68s36.151 10 54.659 10 54.659-10 54.659-10"/>
   <path d="m355.34 238.68s36.151 10 54.659 10 54.659-10 54.659-10"/>
   <path d="m171.34 238.68s36.151 10 54.659 10 54.659-10 54.659-10"/>
   <path d="m105.77 234.68s25.214 9.3957 38.441 10c12.298 0.56186 36.441-6 36.441-6"/>
   <path d="m512.65 232.68s-23.845 9.9161-36.441 10c-13.24 0.0882-38.441-10-38.441-10"/>
  </g>
  <g transform="translate(-116.75 211.37)" fill="none" stroke="#aad400" stroke-linecap="round" stroke-linejoin="round" stroke-width="10">
   <path d="m212.25 222.68s31.42 16.623 48.659 18c17.158 1.3705 50.659-10 50.659-10"/>
   <path d="m307.86 230.68s33.468 10.861 50.659 10c18.322-0.91766 52.659-16 52.659-16"/>
   <path d="m405.46 222.68s36.271 8.9701 54.659 8c18.782-0.99083 54.659-14 54.659-14"/>
   <path d="m106.65 218.68s35.863 13.344 54.659 14c18.511 0.64621 54.659-10 54.659-10"/>
  </g>
 </g>
</svg>
